# xmcd CD database file
#
# Track frame offsets:
#	150
#	17441
#	37833
#	50548
#	67439
#	87826
#	101170
#	122798
#	134873
#	153967
#	167905
#	187931
#	204534
#	215606
#	231714
#	246309
#	261200
#	274069
#
# Disc length: 3806 seconds
#
# Revision: 0
# Processed by: cddbd v1.5.2PL0 Copyright (c) Steve Scherf et al.
# Submitted via: CDex 1.70beta2
#
DISCID=140edc12
DTITLE=Slim Lightfoot - Original Nugget Blues
DYEAR=2008
DGENRE=Blues
TTITLE0=Rag Mama
TTITLE1=Doin' The Do
TTITLE2=Marching My Way Back Home
TTITLE3=Standing On The Banks Of The Mighty Blues
TTITLE4=Welfare State Blues
TTITLE5=Dancehall Crazy
TTITLE6=Slingback
TTITLE7=Ode To Blind Joe Death
TTITLE8=Rye and Dry
TTITLE9=Rag n Dones No.2
TTITLE10=Bad Storms A Coming
TTITLE11=What In The World Did I Do?
TTITLE12=Chicken Legs
TTITLE13=Forbidden Love
TTITLE14=How Do You Live With Yourself?
TTITLE15=Slims Jitterbug Blues
TTITLE16=I Got Lazy In My Head
TTITLE17=Country Shack (Revisited)
EXTD=YEAR: 2008
EXTT0=
EXTT1=
EXTT2=
EXTT3=
EXTT4=
EXTT5=
EXTT6=
EXTT7=
EXTT8=
EXTT9=
EXTT10=
EXTT11=
EXTT12=
EXTT13=
EXTT14=
EXTT15=
EXTT16=
EXTT17=
PLAYORDER=
